<svg id="Layer_1" data-name="Layer 1" xmlns="http://www.w3.org/2000/svg" viewBox="0 0 256 256"><defs><style>.cls-1{fill:#2699fb;}</style></defs><title>Artboard 1</title><path class="cls-1" d="M107.61,220.13c.39-2.09.67-4.22,1.2-6.28,2.08-8,0-15.46-3.36-22.7-.28-.62-.51-1.53-1.43-1.13-1.26.55-.33,1.41,0,2,5,8,5.21,16.36,2.24,25.11-1.4,4.12-1.5,8.55-2.45,12.85a32.5,32.5,0,0,1-.18-12.62,47.11,47.11,0,0,0-1.61-24c-.28-.87-.15-2.05-1.48-2.47-.82,1-.07,1.9.22,2.74a37.94,37.94,0,0,1,1.45,20.71,36.58,36.58,0,0,0,.81,18.43,18.24,18.24,0,0,1,.84,4.91c-4.15-6.82-7-14.05-7.29-22.11-.22-5.84,1-11.57,1.37-17.36.07-.9.17-1.8.16-2.7-.06-3.76-.28-4-4.1-4.12a12.81,12.81,0,0,1-10.18-5,53.07,53.07,0,0,0-7.23-7.61,12.43,12.43,0,0,1-3.82-6.69c-2.12-8.15-1.63-16.1,2.17-23.7,1.78-3.58,3.64-7.14,5.62-10.62,2.65-4.66,1.24-9.36.3-14-.35-1.71-2-1.08-3-1.11a156.52,156.52,0,0,1-33.3-4.48,22.56,22.56,0,0,1-7.94-3.47c-1.3-1-2.71-2-2.44-3.84s1.78-2.33,3.2-2.84c2.07-.74,4.2-1.34,6.29-2,1.7-.58,3.61-.89,5.05-1.87,6.4-4.34,13.75-5.89,21.06-7.59,4.66-1.09,8.54-3.16,11.11-7.47a36.93,36.93,0,0,1,4.88-6.09C95,73,99.51,61,102.05,48c.9-4.62.56-5-4-5.49-2.09-.23-4.19-.45-6.26-.76-.66-.1-1.48-.28-1.54-1.16,0-.72.62-1,1.18-1.17,7.31-2.09,14.15-5.67,21.69-7,3.51-.64,4.16,0,4.28,3.71.2,6.56-1.21,13-1.83,19.43-.21,2.17-1.61,5.23.48,6.25,1.13.56,2-3.14,3-5,10.25-20.63,26.94-32.6,49.46-36.54a241,241,0,0,1,46.71-3.05,30.29,30.29,0,0,1,3.29.33c1.05.15,2.55,0,2.71,1.29s-1.29,1.66-2.25,2.11c-6.91,3.21-14.2,5.48-21.33,8.14-6.19,2.31-12.42,4.51-18.41,7.33A69,69,0,0,0,152,59c-.4.57-.8,1.15-1.16,1.75-3,5-2.65,6.43,2.7,8.51,6.07,2.35,12.19,4.6,18.36,6.67a21.06,21.06,0,0,1,11.61,9c1.6,2.54,3.35,5,4.91,7.56,2.07,3.4,1.84,5.19-1.08,8a69.74,69.74,0,0,1-5.58,4.56c-1.63,1.23-1.86,2.52-.47,4,5.27,5.68,9.37,12.24,13.89,18.48,2.55,3.53,6.08,6,9.42,8.8a31.06,31.06,0,0,1-9.71-5.73,39.88,39.88,0,0,1-6.68-7.7c-4.24-6.21-8.54-12.35-14-17.64-2.64-2.58-2.43-3.21.71-5.13a24,24,0,0,0,5.63-4.46c1.66-1.88,1.75-3.66-.1-5.54a15.77,15.77,0,0,0-8.85-4.72c-3.52-.58-5.64,1-5.85,4.64a63.41,63.41,0,0,0,.25,6.6c0,.8.18,1.73-.68,2.13s-1.57-.32-2-1a26.07,26.07,0,0,1-3.82-15.18c.12-2,1.81-2.74,3.41-3.41,2.38-1,5-1.07,7.52-1.7C156.86,73,144,65.87,128.84,66.72c7.86-3.28,11.32-10.5,16.17-16.32a81.26,81.26,0,0,1,9.49-9.61c5.31-4.56,11.13-7.39,18.39-6.35a15.44,15.44,0,0,0,8.79-1.35,183.42,183.42,0,0,1,30-10.53,35,35,0,0,0,3.39-1.2c.25-.1.42-.38.66-.6-.59-1.12-1.62-.68-2.4-.67A220.12,220.12,0,0,0,168,24.73c-19.65,4.28-32.94,16.9-42.93,33.62a27.87,27.87,0,0,0-2.34,6.48c-.43,1.41-1.15,2.9-2.8,2.66-5.71-.84-11.33-.18-17,.85,0-.54,0-.84.08-.89,8.48-4.92,10.48-13.44,12.19-22.08a33.7,33.7,0,0,0,.63-5.67c.1-3.45-1-4.71-4.44-5.18-3.59-.5-4.95.19-5.73,3.61q-2.36,10.26-4.33,20.59C99,70.79,93,80.72,84.11,89c-2.28,2.13-4.48,4.26-5.49,7.38-1.53,4.71-1,9.23,2.53,12.57,6.06,5.77,6,12.24,3.94,19.59a114.94,114.94,0,0,1-8.19,20.3A17,17,0,0,0,75,154.19c-.49,3.78,1.44,6,5.24,5.95,3,0,5.57-1.51,8.21-2.68,3-1.32,5.91-2.78,9.07-3.89-4.87,6.63-14.75,8.59-15.91,18.49l-.76-.32c-1.29-2.66-2.52-5.35-3.9-8-.48-.9-.94-2.4-2.23-2.05s-1,1.81-1.09,2.87a15.15,15.15,0,0,0,2.76,10.52,67.2,67.2,0,0,0,7.5,8.58c4.62,4.67,10.11,5.72,16.31,4.41a88.56,88.56,0,0,0,11.53-3.38,108.23,108.23,0,0,1,25.37-6.06c10.82-1.11,19.22-6.4,25.94-14.69,2.51-3.09,4.95-6.24,7.47-9.41.52.8,0,1.28-.33,1.72-7.64,11.33-16.2,21.61-29.27,27.19-8.11,3.47-10.13,7.29-9.42,16.07.42,5.23,2,10.2,3.47,15.21,1.94,6.73,4.31,13.35,5.69,20.24a7.17,7.17,0,0,1,.18,4c-1.29-1-1.6-2.42-2.11-3.65-3.85-9.36-7.58-18.76-11.51-28.09a58.06,58.06,0,0,0-10-16.32c-2-2.28-4.35-3.8-7.67-2.69-1.5.49-1.83,1-.71,2.21q2,2.21,4,4.52a10.81,10.81,0,0,1,2.16,10.16,59.77,59.77,0,0,1-6.5,15.22ZM40.85,108.46c5.17,1.14,9.88-.06,14.59-1.48,6.5-1.94,13-4.26,20-3.27.52.07,1.18.17,1.2-.46,0-2.09,0-4.18-.14-6.27,0-.63-.8-.41-1.25-.3-5,1.19-10.19,1.48-14.69,4A73,73,0,0,1,47,106.35C44.92,107,42.89,107.76,40.85,108.46Z"/><path class="cls-1" d="M124.91,107.71c3.94-6.7,9.25-9.35,15.7-8.41a42.32,42.32,0,0,1,9.59,2.37c2.19.86,2.46,2.27.8,3.86-3.67,3.51-7.82,5.73-13,3.76C133.93,107.76,130,106.07,124.91,107.71Z"/></svg>