<?xml version="1.0" encoding="utf-8"?>
<!-- Generator: Adobe Illustrator 23.0.0, SVG Export Plug-In . SVG Version: 6.00 Build 0)  -->
<svg version="1.1" id="Layer_1" xmlns="http://www.w3.org/2000/svg" xmlns:xlink="http://www.w3.org/1999/xlink" x="0px" y="0px"
	 viewBox="0 0 219.9 144" style="enable-background:new 0 0 219.9 144;" xml:space="preserve">
<style type="text/css">
	.st0{fill:#2699FB;}
</style>
<title>Djali-White-Unique</title>
<path class="st0" d="M42.3,117c0.2-1.2,0.4-2.4,0.7-3.6c1.2-4.7,0-8.9-1.9-13.1c-0.2-0.3-0.3-0.9-0.8-0.7c-0.7,0.3-0.2,0.8,0,1.1
	c2.9,4.6,3,9.4,1.3,14.5c-0.8,2.4-0.9,4.9-1.4,7.4c-0.5-2.4-0.5-4.9-0.1-7.3c0.9-4.6,0.6-9.4-0.9-13.8c-0.2-0.5-0.1-1.2-0.8-1.4
	c-0.5,0.6,0,1.1,0.1,1.6c1.4,3.8,1.7,8,0.8,12c-0.8,3.5-0.6,7.2,0.5,10.6c0.3,0.9,0.4,1.9,0.5,2.8c-2.5-3.8-3.9-8.2-4.2-12.7
	c-0.1-3.4,0.6-6.7,0.8-10c0-0.5,0.1-1,0.1-1.6c0-2.2-0.2-2.3-2.4-2.4c-2.3,0-4.5-1-5.9-2.8c-1.2-1.6-2.6-3.1-4.2-4.4
	c-1.1-1-1.9-2.4-2.2-3.9c-1.3-4.6-0.9-9.4,1.3-13.7c1-2.1,2.1-4.1,3.2-6.1c1.5-2.7,0.7-5.4,0.2-8.1c-0.2-1-1.1-0.6-1.7-0.6
	c-6.5-0.2-12.9-1-19.2-2.6c-1.6-0.4-3.2-1-4.6-2C0.7,55.7-0.1,55.1,0,54s1-1.3,1.9-1.6c1.2-0.4,2.4-0.8,3.6-1.2c1-0.2,2-0.6,2.9-1.1
	c3.7-2.5,7.9-3.4,12.1-4.4c2.7-0.4,5-2,6.4-4.3c0.8-1.3,1.8-2.5,2.8-3.6c5.3-5.7,7.9-12.7,9.4-20.1c0.5-2.7,0.3-2.9-2.3-3.2
	c-1.2-0.1-2.4-0.3-3.6-0.4c-0.4-0.1-0.8-0.2-0.9-0.7s0.3-0.6,0.7-0.7c4.2-1.2,8.1-3.3,12.5-4.1c2-0.4,2.4,0,2.5,2.1
	c0.1,3.8-0.7,7.5-1,11.2c-0.1,1.3-0.9,3,0.3,3.6c0.6,0.3,1.2-1.8,1.7-2.9C54.9,11,64.5,4.1,77.4,1.8c8.9-1.5,17.9-2.1,26.9-1.8
	c0.6,0,1.3,0.1,1.9,0.2c0.6,0.1,1.5,0,1.6,0.7s-0.8,1-1.3,1.2c-4,1.9-8.2,3.1-12.3,4.7c-3.6,1.3-7.2,2.6-10.6,4.2
	c-6.3,2.9-11.7,7.4-15.7,13c-0.2,0.3-0.5,0.7-0.7,1c-1.8,2.9-1.5,3.7,1.6,4.9c3.5,1.3,7,2.7,10.6,3.8c2.8,0.9,5.2,2.7,6.7,5.2
	c0.9,1.5,1.9,2.9,2.8,4.3c1.2,2,1.1,3-0.6,4.6c-1,0.9-2.1,1.8-3.2,2.6c-0.9,0.7-1.1,1.5-0.3,2.3c3,3.3,5.4,7,8,10.6
	c1.6,1.9,3.4,3.6,5.4,5.1c-2.1-0.8-3.9-1.9-5.6-3.3c-1.5-1.3-2.8-2.8-3.8-4.4c-2.3-3.6-5-7.1-8-10.2c-1.5-1.5-1.4-1.8,0.4-3
	c1.2-0.7,2.3-1.6,3.3-2.6c0.9-0.7,1-2,0.2-2.9c-0.1-0.1-0.2-0.2-0.3-0.3c-1.4-1.4-3.1-2.4-5.1-2.7c-2-0.3-3.3,0.6-3.4,2.7
	c0,1.3,0,2.5,0.2,3.8c0,0.5,0.1,1-0.4,1.2s-0.9-0.2-1.1-0.6c-1.6-2.6-2.4-5.7-2.2-8.7c0.1-1.2,1-1.6,2-2c1.4-0.4,2.9-0.8,4.3-1
	c-7.8-2.6-15.3-6.7-24-6.2c4.5-1.9,6.5-6,9.3-9.4c1.7-2,3.5-3.8,5.5-5.5c3.1-2.6,6.4-4.3,10.6-3.7c1.7,0.2,3.5,0,5.1-0.8
	c5.6-2.5,11.4-4.5,17.3-6.1c0.7-0.2,1.3-0.4,2-0.7c0.1-0.1,0.3-0.2,0.4-0.3c-0.3-0.6-0.9-0.4-1.4-0.4c-8.8,0-17.5,0.9-26.2,2.7
	c-11.4,2.6-19.1,9.9-24.9,19.5c-0.6,1.2-1.1,2.4-1.3,3.7c-0.3,0.8-0.7,1.7-1.6,1.5c-3.3-0.4-6.6-0.2-9.8,0.5c0-0.3,0-0.5,0-0.5
	c4.9-2.8,6-7.8,7-12.7c0.2-1.1,0.3-2.2,0.4-3.3c0.1-2-0.6-2.7-2.6-3s-2.8,0.1-3.3,2.1C40.3,16,39.5,20,38.7,24
	c-1.3,6.7-4.8,12.9-9.9,17.5c-1.4,1.1-2.5,2.6-3.2,4.3c-0.9,2.7-0.6,5.3,1.5,7.3c3.5,3.3,3.5,7,2.3,11.3c-1.2,4-2.8,7.9-4.7,11.7
	c-0.5,1-0.9,2-1.1,3.1c-0.3,2.2,0.8,3.4,3,3.4c1.8,0,3.2-0.9,4.7-1.5c1.7-0.8,3.4-1.6,5.2-2.3c-2.8,3.8-8.5,5-9.2,10.7l-0.5-0.2
	c-0.8-1.5-1.5-3.1-2.3-4.6c-0.3-0.5-0.5-1.4-1.3-1.2s-0.6,1-0.6,1.7c-0.2,2.1,0.3,4.3,1.6,6.1c1.3,1.8,2.8,3.4,4.3,4.9
	c2.7,2.7,5.8,3.3,9.4,2.5c2.3-0.5,4.5-1.1,6.6-1.9c4.7-1.8,9.6-2.9,14.6-3.5c6.2-0.6,11.1-3.7,15-8.5c1.4-1.8,2.8-3.6,4.3-5.4
	c0.3,0.5,0,0.7-0.2,1c-4.4,6.5-9.3,12.5-16.9,15.7c-4.7,2-5.8,4.2-5.4,9.3c0.4,3,1,5.9,2,8.8c1.1,3.9,2.5,7.7,3.3,11.7
	c0.3,0.7,0.3,1.5,0.1,2.3c-0.6-0.6-1-1.3-1.2-2.1c-2.2-5.4-4.4-10.8-6.6-16.2c-1.4-3.4-3.3-6.6-5.8-9.4c-1.2-1.3-2.5-2.2-4.4-1.6
	c-0.9,0.3-1,0.6-0.4,1.3c0.8,0.9,1.5,1.7,2.3,2.6c1.4,1.6,1.8,3.8,1.2,5.8c-0.8,3.1-2.1,6-3.8,8.8L42.3,117z M3.9,52.6
	c3,0.7,5.7,0,8.4-0.9c3.7-1.1,7.5-2.5,11.5-1.9c0.3,0,0.7,0.1,0.7-0.3c0-1.2,0-2.4-0.1-3.6c0-0.4-0.5-0.2-0.7-0.2
	c-2.8,0.7-5.9,0.9-8.5,2.3c-2.5,1.3-5.1,2.4-7.8,3.2C6.2,51.8,5.1,52.2,3.9,52.6z"/>
<path class="st0" d="M52.3,52.2c2.3-3.9,5.3-5.4,9-4.8c1.9,0.2,3.8,0.7,5.6,1.4c1.3,0.5,1.4,1.3,0.5,2.2c-2.1,2-4.5,3.3-7.5,2.2
	C57.5,52.2,55.2,51.3,52.3,52.2z"/>
<path class="st0" d="M119.5,98.8c0,2.4-0.2,4.6-0.6,6.8c-0.4,2.1-1,4.1-1.8,5.9c-0.8,1.8-1.7,3.5-2.7,4.9c-1.1,1.5-2.2,2.7-3.5,3.7
	c-1.3,1-2.7,1.8-4.1,2.4c-1.5,0.6-3,0.8-4.5,0.8H87.7v-49h14.5c1.6,0,3.1,0.3,4.5,0.8s2.8,1.3,4.1,2.3c1.3,1,2.5,2.2,3.5,3.7
	s2,3.1,2.8,4.9c0.8,1.8,1.4,3.8,1.8,5.9C119.3,94.1,119.5,96.4,119.5,98.8z M110.3,98.8c0-2.7-0.2-5.2-0.6-7.6
	c-0.4-2.4-1.1-4.5-2-6.3c-0.9-1.8-2.1-3.3-3.5-4.3c-1.4-1.1-3.1-1.6-5-1.6h-2.4v39.6h2.4c1.9,0,3.6-0.5,5-1.6
	c1.4-1.1,2.6-2.5,3.5-4.4c0.9-1.8,1.6-3.9,2-6.3C110.1,103.9,110.3,101.4,110.3,98.8z"/>
<path class="st0" d="M134.2,108c0,3.2-0.3,6.4-0.8,9.6c-0.5,3.3-1.3,6.4-2.3,9.5s-2.1,5.9-3.5,8.6c-1.4,2.7-2.8,5-4.5,6.9l-3.5-3.2
	c0.9-1.9,1.7-4,2.4-6.3s1.3-4.8,1.7-7.3c0.5-2.5,0.8-5.1,1-7.7c0.2-2.6,0.3-5,0.3-7.3V74.4h9V108z"/>
<path class="st0" d="M172.8,99.9v0.6c0,1.9-0.2,3.9-0.4,5.9s-0.6,4.1-1,6.1c-0.4,2-0.9,4.1-1.5,6.1c-0.6,2-1.3,3.9-2,5.7
	s-1.5,3.5-2.4,5.1s-1.7,3-2.7,4.2l-3.4-2.9c0.5-1.3,1-2.8,1.4-4.4c0.4-1.6,0.8-3.2,1.2-5s0.6-3.5,0.9-5.3s0.5-3.6,0.6-5.4
	c0.2-1.8,0.3-3.6,0.4-5.3s0.1-3.4,0.1-5c0-1.2,0-2.6,0-4.2s-0.1-3.1-0.2-4.7c-0.1-1.6-0.3-3.2-0.6-4.7s-0.6-2.9-1.2-4.1
	c-0.5-1.2-1.2-2.2-2-2.9c-0.8-0.7-1.8-1.1-3-1.1c-1,0-1.9,0.3-2.7,0.8c-0.8,0.5-1.4,1.2-1.9,2.1s-0.9,1.9-1.3,3.1s-0.6,2.4-0.7,3.7
	c-0.2,1.3-0.3,2.6-0.3,3.9c-0.1,1.3-0.1,2.6-0.1,3.8v9.5h9.8v5.6h-9.8v11.9h-9V98.4c0-3.6,0.4-6.9,1.1-9.9s1.8-5.7,3.2-8
	c1.4-2.3,3.1-4,5-5.3c2-1.3,4.1-1.9,6.5-1.9c1.6,0,3.1,0.3,4.6,1c1.4,0.7,2.7,1.6,3.9,2.9c1.2,1.2,2.2,2.7,3.1,4.3
	c0.9,1.7,1.7,3.5,2.3,5.5c0.6,2,1.1,4.1,1.4,6.3C172.7,95.4,172.8,97.7,172.8,99.9z"/>
<path class="st0" d="M202.2,123.3h-23.6v-49h9v42.8h14.5V123.3z"/>
<path class="st0" d="M215.5,123.3h-9v-49h9V123.3z"/>
</svg>
