<?xml version="1.0" encoding="utf-8"?>
<!-- Generator: Adobe Illustrator 23.0.0, SVG Export Plug-In . SVG Version: 6.00 Build 0)  -->
<svg preserveAspectRatio="none" version="1.1" id="Capa_1" xmlns="http://www.w3.org/2000/svg" xmlns:xlink="http://www.w3.org/1999/xlink" x="0px" y="0px"
	 viewBox="0 0 448 448" style="enable-background:new 0 0 448 448;" xml:space="preserve">
<style type="text/css">
	.st0{fill:#1E90FF;}
	.st1{fill:none;stroke:#1E90FF;stroke-width:15;stroke-miterlimit:10;}
</style>
<g>
	<g>
		<g>
			<g>
				<path class="st0" d="M43.2,55.9C33.1,51.5,24.8,57,24.8,68l-0.1,96.9c0,11,8.9,21.2,19.8,22.6l253.7,33.8
					c10.9,1.5,10.9,3.8,0,5.3L44.5,260.5c-10.9,1.5-19.8,11.6-19.8,22.6l0.1,96.9c0,11,8.3,16.5,18.4,12.1L417,231.9
					c10.1-4.3,10.1-11.4,0-15.8L43.2,55.9z"/>
				<path class="st1" d="M43.2,55.9C33.1,51.5,24.8,57,24.8,68l-0.1,96.9c0,11,8.9,21.2,19.8,22.6l253.7,33.8
					c10.9,1.5,10.9,3.8,0,5.3L44.5,260.5c-10.9,1.5-19.8,11.6-19.8,22.6l0.1,96.9c0,11,8.3,16.5,18.4,12.1L417,231.9
					c10.1-4.3,10.1-11.4,0-15.8L43.2,55.9z"/>
			</g>
		</g>
	</g>
</g>
</svg>
