<?xml version="1.0" standalone="no"?><!DOCTYPE svg PUBLIC "-//W3C//DTD SVG 1.1//EN" "http://www.w3.org/Graphics/SVG/1.1/DTD/svg11.dtd"><svg class="icon" height="512" viewBox="0 0 1024 1024" version="1.1" xmlns="http://www.w3.org/2000/svg"><path d="M512 1024C229.2224 1024 0 794.7776 0 512 0 229.2224 229.2224 0 512 0 794.7776 0 1024 229.2224 1024 512 1024 794.7776 794.7776 1024 512 1024ZM512 25.6C243.3792 25.6 25.6 243.3792 25.6 512 25.6 780.6208 243.3792 998.4 512 998.4 780.6208 998.4 998.4 780.6208 998.4 512 998.4 243.3792 780.6208 25.6 512 25.6ZM714.7264 742.4 689.152 742.4C676.7104 655.5904 602.24 588.8 512 588.8 421.7344 588.8 347.2896 655.5904 334.8224 742.4L309.248 742.4C319.1552 663.6032 373.4528 598.7072 446.6176 574.0288 394.5216 549.4784 358.4 496.6144 358.4 435.2 358.4 350.3616 427.1616 281.6 512 281.6 596.8384 281.6 665.6 350.3616 665.6 435.2 665.6 496.6144 629.4528 549.4784 577.3568 574.0288 650.5472 598.7072 704.8448 663.6032 714.7264 742.4ZM640 435.2C640 367.3344 582.6816 307.2 512 307.2 441.2928 307.2 384 367.3344 384 435.2 384 503.0656 441.2928 563.2 512 563.2 582.6816 563.2 640 503.0656 640 435.2Z" /></svg>