<svg id="Layer_1" data-name="Layer 1" xmlns="http://www.w3.org/2000/svg" width="227" height="118" viewBox="0 0 227 118"><defs><style>.cls-1{fill:#fff;}</style></defs><title>Djali-text-logo</title><path class="cls-1" d="M47.88,100.59c.17-.93.29-1.88.53-2.8.93-3.59,0-6.89-1.49-10.11-.13-.28-.23-.68-.64-.51-.56.25-.15.63,0,.88,2.24,3.56,2.32,7.29,1,11.19a53.51,53.51,0,0,0-1.1,5.72,14.57,14.57,0,0,1-.08-5.62,21.06,21.06,0,0,0-.71-10.71c-.13-.38-.07-.91-.66-1.1-.37.45,0,.85.09,1.22A16.9,16.9,0,0,1,45.48,98a16.22,16.22,0,0,0,.36,8.21,8,8,0,0,1,.37,2.18A20.41,20.41,0,0,1,43,98.53a74.5,74.5,0,0,1,.62-7.74c0-.4.07-.8.07-1.2,0-1.67-.13-1.79-1.83-1.83a5.75,5.75,0,0,1-4.54-2.21,23.46,23.46,0,0,0-3.22-3.39,5.53,5.53,0,0,1-1.7-3,14.64,14.64,0,0,1,1-10.56q1.19-2.4,2.5-4.74c1.19-2.07.55-4.17.13-6.26-.15-.76-.87-.48-1.35-.49a69.37,69.37,0,0,1-14.83-2,9.92,9.92,0,0,1-3.54-1.54c-.58-.43-1.21-.89-1.09-1.72s.79-1,1.43-1.26c.92-.33,1.87-.6,2.8-.91a9.57,9.57,0,0,0,2.25-.83c2.85-1.94,6.13-2.63,9.38-3.39a7.23,7.23,0,0,0,5-3.33,16.43,16.43,0,0,1,2.17-2.71c4.1-4.41,6.13-9.78,7.26-15.57.4-2.06.25-2.22-1.78-2.45-.94-.1-1.87-.2-2.79-.34-.3,0-.66-.12-.69-.51s.28-.45.53-.52c3.26-.94,6.3-2.53,9.66-3.14,1.57-.28,1.86,0,1.91,1.66.09,2.92-.54,5.77-.81,8.66-.1,1-.72,2.33.21,2.78.5.25.91-1.4,1.32-2.21,4.57-9.19,12-14.53,22-16.28a107.4,107.4,0,0,1,20.81-1.36,12.2,12.2,0,0,1,1.47.15c.47.06,1.14,0,1.21.57s-.58.74-1,.94c-3.09,1.43-6.33,2.44-9.51,3.63-2.76,1-5.54,2-8.2,3.26A30.85,30.85,0,0,0,67.64,28.78c-.18.25-.35.51-.52.78-1.35,2.22-1.18,2.86,1.21,3.79,2.7,1,5.43,2,8.18,3a9.39,9.39,0,0,1,5.17,4c.72,1.13,1.5,2.22,2.19,3.36.92,1.52.82,2.32-.48,3.55a30.59,30.59,0,0,1-2.49,2c-.72.55-.82,1.12-.21,1.79a83.85,83.85,0,0,1,6.19,8.23,22.72,22.72,0,0,0,4.2,3.93,14.16,14.16,0,0,1-4.33-2.56,17.69,17.69,0,0,1-3-3.43,50.17,50.17,0,0,0-6.23-7.86c-1.17-1.15-1.08-1.43.32-2.29a10.7,10.7,0,0,0,2.51-2,1.6,1.6,0,0,0,0-2.47,7.07,7.07,0,0,0-4-2.11,2,2,0,0,0-2.61,2.07,28.9,28.9,0,0,0,.12,2.94c0,.36.08.77-.3,1s-.71-.14-.88-.43A11.69,11.69,0,0,1,71,39.29c0-.88.8-1.22,1.52-1.52A21.73,21.73,0,0,1,75.89,37c-6.06-2-11.79-5.16-18.55-4.78,3.5-1.46,5-4.68,7.2-7.28a38,38,0,0,1,4.23-4.28c2.37-2,5-3.29,8.2-2.83a6.82,6.82,0,0,0,3.92-.6,81,81,0,0,1,13.38-4.69c.51-.14,1-.35,1.51-.54.11,0,.19-.17.29-.27-.26-.5-.72-.3-1.07-.29a98,98,0,0,0-20.21,2.06C66,15.42,60.1,21,55.65,28.49a12.78,12.78,0,0,0-1,2.89c-.19.63-.51,1.3-1.25,1.19a23,23,0,0,0-7.57.38c0-.24,0-.38,0-.4,3.78-2.19,4.67-6,5.44-9.84a16.47,16.47,0,0,0,.28-2.52c0-1.54-.47-2.11-2-2.32S47.35,18,47,19.49q-1.05,4.56-1.92,9.17a24.43,24.43,0,0,1-7.67,13.5A7.93,7.93,0,0,0,35,45.45a5.11,5.11,0,0,0,1.13,5.6c2.7,2.57,2.69,5.45,1.75,8.73a51.45,51.45,0,0,1-3.65,9,7.38,7.38,0,0,0-.86,2.38,2.11,2.11,0,0,0,2.33,2.65,9.25,9.25,0,0,0,3.66-1.2c1.33-.59,2.63-1.24,4-1.73-2.17,2.95-6.57,3.83-7.09,8.24L35.94,79c-.58-1.19-1.13-2.39-1.74-3.55-.22-.41-.42-1.07-1-.92s-.44.81-.49,1.28a6.88,6.88,0,0,0,1.23,4.69,31.17,31.17,0,0,0,3.35,3.82,7.39,7.39,0,0,0,7.27,2,39.84,39.84,0,0,0,5.14-1.51A47.86,47.86,0,0,1,61,82.11a16.65,16.65,0,0,0,11.56-6.55c1.12-1.37,2.21-2.77,3.33-4.19.23.36,0,.57-.15.77-3.4,5-7.21,9.63-13,12.12-3.61,1.54-4.51,3.24-4.2,7.16a35,35,0,0,0,1.55,6.77c.86,3,1.92,6,2.53,9a3.25,3.25,0,0,1,.08,1.79,3.49,3.49,0,0,1-.94-1.63C60,103.2,58.34,99,56.59,94.86a25.65,25.65,0,0,0-4.47-7.28c-.91-1-1.93-1.69-3.41-1.2-.67.22-.82.45-.32,1s1.19,1.33,1.76,2a4.82,4.82,0,0,1,1,4.53,26.78,26.78,0,0,1-2.9,6.78ZM18.13,50.83a12.54,12.54,0,0,0,6.5-.66c2.9-.87,5.78-1.9,8.89-1.46.23,0,.53.08.53-.2,0-.93,0-1.87-.06-2.8,0-.28-.35-.18-.56-.13-2.2.53-4.54.66-6.54,1.8a33.19,33.19,0,0,1-6,2.51C19.94,50.19,19,50.51,18.13,50.83Z"/><path class="cls-1" d="M55.59,50.49c1.75-3,4.12-4.17,7-3.75a19.71,19.71,0,0,1,4.28,1.06c1,.39,1.09,1,.35,1.72-1.63,1.57-3.48,2.56-5.8,1.68C59.61,50.51,57.84,49.76,55.59,50.49Z"/><path class="cls-1" d="M125.88,59.19a30.71,30.71,0,0,1-.57,6,28.21,28.21,0,0,1-1.6,5.29,22.2,22.2,0,0,1-2.46,4.37,16.61,16.61,0,0,1-3.15,3.31,13.71,13.71,0,0,1-3.68,2.11,11.48,11.48,0,0,1-4,.74H97.44V37.46h12.93a11.63,11.63,0,0,1,4,.72,13.94,13.94,0,0,1,3.67,2.07,17.1,17.1,0,0,1,3.16,3.29,21.49,21.49,0,0,1,2.47,4.34,27.78,27.78,0,0,1,1.6,5.27A30.88,30.88,0,0,1,125.88,59.19Zm-8.21,0a37.41,37.41,0,0,0-.59-6.74,20.09,20.09,0,0,0-1.8-5.61,10.8,10.8,0,0,0-3.1-3.85,7.34,7.34,0,0,0-4.52-1.42h-2.14V76.8h2.14a7.12,7.12,0,0,0,4.47-1.44,10.92,10.92,0,0,0,3.12-3.87,20.77,20.77,0,0,0,1.82-5.61A36,36,0,0,0,117.67,59.19Z"/><path class="cls-1" d="M139,67.36a52.33,52.33,0,0,1-.73,8.55,60.65,60.65,0,0,1-2,8.41,50,50,0,0,1-3.11,7.61,34.27,34.27,0,0,1-4,6.18l-3.14-2.82a34.86,34.86,0,0,0,2.14-5.63,64.24,64.24,0,0,0,1.53-6.53c.4-2.26.71-4.53.91-6.81s.31-4.45.31-6.51V37.46H139Z"/><path class="cls-1" d="M173.46,60.19v.57a51.21,51.21,0,0,1-.35,5.27c-.21,1.81-.51,3.63-.89,5.44s-.84,3.62-1.36,5.39-1.13,3.48-1.79,5.1A47.25,47.25,0,0,1,167,86.53a28.19,28.19,0,0,1-2.41,3.77l-3-2.6a39.4,39.4,0,0,0,1.29-3.89q.58-2.1,1-4.41c.31-1.53.58-3.1.8-4.72s.41-3.22.56-4.81.26-3.16.34-4.71.11-3,.11-4.4c0-1.09,0-2.32,0-3.71s-.06-2.79-.16-4.22-.27-2.83-.5-4.19A16.53,16.53,0,0,0,164,45a7.25,7.25,0,0,0-1.75-2.57,3.81,3.81,0,0,0-2.66-1,4.08,4.08,0,0,0-2.41.71,6,6,0,0,0-1.72,1.91,11.45,11.45,0,0,0-1.12,2.77,29.38,29.38,0,0,0-.65,3.31c-.15,1.16-.26,2.33-.3,3.51s-.07,2.3-.07,3.35v8.44h8.77v5h-8.77V81h-8.09V58.88a36.38,36.38,0,0,1,1-8.83,24.88,24.88,0,0,1,2.88-7.1,14.84,14.84,0,0,1,4.48-4.72,10.46,10.46,0,0,1,5.84-1.71,9.31,9.31,0,0,1,4.08.92A12.25,12.25,0,0,1,167,40a18.12,18.12,0,0,1,2.81,3.85,26.18,26.18,0,0,1,2,4.85,36.83,36.83,0,0,1,1.26,5.57A37.92,37.92,0,0,1,173.46,60.19Z"/><path class="cls-1" d="M199.78,81H178.72V37.46h8.09v38h13Z"/><path class="cls-1" d="M211.68,81h-8.09V37.46h8.09Z"/></svg>